<svg xmlns="http://www.w3.org/2000/svg" viewBox="0 0 197.386 233.599">
  <defs>
    <style>
      .cls-1 {
        fill: #ff0;
      }
    </style>
  </defs>
  <g id="b2b" transform="translate(-24.923 -6.066)">
    <path id="Path_10" data-name="Path 10" class="cls-1" d="M59.848,109.816a83.724,83.724,0,0,1,78.729-70.6L127.689,50.1l9.913,9.913,26.978-26.977L137.6,6.066l-9.913,9.913,9.278,9.278a97.72,97.72,0,0,0-77.418,149.17l11.9-7.409A83.671,83.671,0,0,1,59.848,109.816Z" transform="translate(-19.888)"/>
    <path id="Path_11" data-name="Path 11" class="cls-1" d="M108.721,375.528l-10.439,9.358a97.842,97.842,0,0,0,18,15.714l7.857-11.611A83.79,83.79,0,0,1,108.721,375.528Z" transform="translate(-48.371 -196.804)"/>
    <path id="Path_12" data-name="Path 12" class="cls-1" d="M315.929,145.664l-11.9,7.409a83.706,83.706,0,0,1-67.123,127.8l10.887-10.887-9.913-9.913L210.9,287.051l26.976,26.975,9.913-9.913-9.275-9.275a97.722,97.722,0,0,0,77.415-149.173Z" transform="translate(-108.36 -74.361)"/>
    <path id="Path_13" data-name="Path 13" class="cls-1" d="M373.8,107.894l10.439-9.358a97.843,97.843,0,0,0-18-15.714l-7.857,11.611A83.791,83.791,0,0,1,373.8,107.894Z" transform="translate(-186.921 -40.886)"/>
    <path id="Path_14" data-name="Path 14" class="cls-1" d="M245.206,185.657a61.963,61.963,0,1,0-61.963,61.963A62.033,62.033,0,0,0,245.206,185.657Zm-109.907,0A47.943,47.943,0,1,1,183.243,233.6,48,48,0,0,1,135.3,185.657Z" transform="translate(-60.622 -62.658)"/>
    <path id="Path_18" data-name="Path 18" class="cls-1" d="M76.979,55.735A13.6,13.6,0,0,0,68.855,35.11V29.376a1.746,1.746,0,0,0-1.746-1.746h-5.25a1.746,1.746,0,0,0-1.746,1.746v5.25h-8.8v-5.25a1.746,1.746,0,0,0-1.746-1.746h-5.21a1.746,1.746,0,0,0-1.746,1.746v5.25H32.236a1.746,1.746,0,0,0-1.746,1.746v5.264a1.746,1.746,0,0,0,1.746,1.746h4.525V71.957H32.236A1.746,1.746,0,0,0,30.49,73.7v5.264a1.746,1.746,0,0,0,1.746,1.746h10.38v5.25a1.746,1.746,0,0,0,1.746,1.746h5.25a1.746,1.746,0,0,0,1.746-1.746v-5.25H60.1v5.25a1.746,1.746,0,0,0,1.746,1.746H67.1a1.746,1.746,0,0,0,1.746-1.746v-5.25h0a14.073,14.073,0,0,0,9.628-3.666,13.71,13.71,0,0,0,.349-19.726A13.859,13.859,0,0,0,76.979,55.735ZM45.5,43.381H65.457a4.955,4.955,0,0,1,0,9.91H45.5ZM72.682,70.507a4.928,4.928,0,0,1-3.5,1.45H45.5v-9.9H69.19a4.955,4.955,0,0,1,3.5,8.46Z" transform="translate(65.878 65.396)"/>
  </g>
</svg>
