<svg xmlns="http://www.w3.org/2000/svg" xmlns:xlink="http://www.w3.org/1999/xlink" viewBox="0 0 114.653 114.653">
  <defs>
    <style>
      .cls-1 {
        fill: #ff0;
      }

      .cls-2 {
        filter: url(#Path_6);
      }
    </style>
    <filter id="Path_6" x="0" y="0" width="114.653" height="114.653" filterUnits="userSpaceOnUse">
      <feOffset dy="3" input="SourceAlpha"/>
      <feGaussianBlur stdDeviation="3" result="blur"/>
      <feFlood flood-opacity="0.161"/>
      <feComposite operator="in" in2="blur"/>
      <feComposite in="SourceGraphic"/>
    </filter>
  </defs>
  <g id="bitcoin" transform="translate(-1 -4)">
    <path id="Path_4" data-name="Path 4" class="cls-1" d="M490.725,336.914l-4.744-1.114L483.2,347.921l1.667.385,2.821.671c5.533,1.3,8.462.049,9.468-4.33C498.132,340.4,496.12,338.187,490.725,336.914Z" transform="translate(-426.53 -293.668)"/>
    <path id="Path_5" data-name="Path 5" class="cls-1" d="M447.038,513.444l-4.882-1.144L439,526.078l1.657.395,3.284.769c6.016,1.42,9.32.138,10.425-4.7C455.5,517.557,453.173,514.894,447.038,513.444Z" transform="translate(-386.689 -452.76)"/>
    <g class="cls-2" transform="matrix(1, 0, 0, 1, 1, 4)">
      <path id="Path_6-2" data-name="Path 6" class="cls-1" d="M58.327,10a48.327,48.327,0,1,0,48.327,48.327A48.329,48.329,0,0,0,58.327,10ZM82.559,52.251c-1.055,4.635-4.014,7.673-10.208,8.117,6.884,3.255,8.817,7.338,7.505,13.068-1.894,8.275-8.028,9.843-19.6,7.367l-2.288,9.971-5.819-1.381,2.288-9.951-4.162-.976L48,88.417l-5.829-1.371L44.45,77.1,33.789,74.59,36.55,68.3l2.308.542c3.432.809,3.935.325,4.645-2.752l5.178-22.615c.72-3.107.473-3.768-2.959-4.576l-3.146-.74L43.8,32.822l11.076,2.6,2.18-9.547,5.829,1.371L60.694,36.8l4.162.976,2.189-9.537,5.819,1.371-2.189,9.567C80.074,41.688,84.068,45.643,82.559,52.251Z" transform="translate(-1 -4)"/>
    </g>
  </g>
</svg>
