<svg xmlns="http://www.w3.org/2000/svg" viewBox="0 0 247.113 245.624">
  <defs>
    <style>
      .cls-1 {
        fill: #ff0;
        stroke: #ff0;
        stroke-width: 3px;
      }
    </style>
  </defs>
  <g id="security" transform="translate(-0.286 1.125)">
    <g id="Group_15" data-name="Group 15" transform="translate(2.272 0.75)">
      <path id="Path_7" data-name="Path 7" class="cls-1" d="M174.707,157.88l65.854,29.27,3.143-7.071-67.622-30.055c.159-1.687.259-3.386.259-5.112a53.861,53.861,0,0,0-2.283-15.48h21.982a23.221,23.221,0,1,0,0-7.74h-25a54.222,54.222,0,0,0-9.126-13.468l30.733-13.971-3.2-7.044L160.86,100.2V79.12a38.772,38.772,0,0,0-.433-5.48l42.517-31.886a23.261,23.261,0,1,0-4.652-6.188L158.348,65.524a38.716,38.716,0,0,0-5.929-10.465L168.43,3.026,161.03.75l-14.8,48.113a38.5,38.5,0,0,0-20.2-8.251V1.718h-7.74v38.9a38.493,38.493,0,0,0-20.651,8.592L82.726.75l-7.4,2.276L91.372,55.152l.6-.182a38.574,38.574,0,0,0-5.995,10.554L58.681,45.055l-4.644,6.192L83.9,73.64a38.206,38.206,0,0,0-.437,5.48V100.2L3.788,63.988l-3.2,7.044,81.822,37.192a54.433,54.433,0,0,0-9.126,13.468h-25a23.221,23.221,0,1,0,0,7.74H70.264a53.729,53.729,0,0,0-2.287,15.48c0,1.726.1,3.425.259,5.112L.614,180.076l3.143,7.071,65.854-29.27a53.813,53.813,0,0,0,9.269,19.49L43.491,203.908a23.453,23.453,0,1,0,3.8,6.835l36.638-27.478a54.382,54.382,0,0,0,6.672,5.6l-3.1,10.062,7.4,2.276,2.508-8.147a53.769,53.769,0,0,0,20.887,5.848v42.761h7.74V198.9a53.728,53.728,0,0,0,20.4-5.612l15.182,49.34,7.4-2.276L153.271,189.2a54.866,54.866,0,0,0,7.125-5.941l36.638,27.478a23.216,23.216,0,1,0,3.793-6.827L165.438,177.37A53.94,53.94,0,0,0,174.707,157.88Zm44.2-47.8a15.48,15.48,0,1,1-15.48,15.48A15.5,15.5,0,0,1,218.912,110.081Zm0-100.623a15.48,15.48,0,1,1-15.48,15.48A15.5,15.5,0,0,1,218.912,9.458ZM25.406,141.042a15.48,15.48,0,1,1,15.48-15.48A15.5,15.5,0,0,1,25.406,141.042Zm0,92.883a15.48,15.48,0,1,1,15.48-15.48A15.5,15.5,0,0,1,25.406,233.924Zm193.506-30.961a15.48,15.48,0,1,1-15.48,15.48A15.5,15.5,0,0,1,218.912,202.963Zm-96.753-154.8A31,31,0,0,1,153.12,79.12v21.39a54.036,54.036,0,0,0-7.74-4.478V79.12a23.221,23.221,0,1,0-46.441,0V96.032a54.4,54.4,0,0,0-7.74,4.478V79.12A31,31,0,0,1,122.159,48.159Zm15.48,44.855a53.618,53.618,0,0,0-30.961,0V79.12a15.48,15.48,0,1,1,30.961,0Zm-15.48,5.457a46.441,46.441,0,1,1-46.441,46.441A46.493,46.493,0,0,1,122.159,98.47Z" transform="translate(-0.587 -0.75)"/>
      <rect id="Rectangle_21" data-name="Rectangle 21" class="cls-1" width="36.093" height="7.74" transform="matrix(0.294, -0.956, 0.956, 0.294, 74.215, 239.439)"/>
      <path id="Path_8" data-name="Path 8" class="cls-1" d="M24.221,47.441A23.042,23.042,0,0,0,38.157,42.8a24.262,24.262,0,0,0,2.063-1.742l7.5,5.623,4.644-6.192-7.493-5.619A23.227,23.227,0,1,0,24.221,47.441Zm0-38.7A15.48,15.48,0,1,1,8.74,24.221,15.5,15.5,0,0,1,24.221,8.74Z" transform="translate(0.598 -0.032)"/>
      <rect id="Rectangle_22" data-name="Rectangle 22" class="cls-1" width="46.763" height="7.736" transform="translate(197.367 82.582) rotate(-24.438)"/>
      <path id="Path_9" data-name="Path 9" class="cls-1" d="M34.74,65.75v23.3H57.961V65.75a19.351,19.351,0,1,0-23.221,0Zm11.61-27.01a11.625,11.625,0,0,1,11.61,11.61,11.486,11.486,0,0,1-5.817,9.989l-1.923,1.118V81.311H42.48V61.458l-1.923-1.118a11.486,11.486,0,0,1-5.817-9.989A11.625,11.625,0,0,1,46.351,38.74Z" transform="translate(75.221 86.071)"/>
    </g>
  </g>
</svg>
